<?xml version="1.0" encoding="utf-8"?><svg fill="none" viewBox="0 0 1080 1080" xmlns="http://www.w3.org/2000/svg"><defs /><g id="Layer 1"><g transform="translate(540,932.501)"><g transform="rotate(0)"><animateTransform repeatCount="indefinite" type="rotate" attributeName="transform" dur="9.24s" begin="0s" calcMode="spline" values="0; 16; -21; 16; -21; 16; 0; 0; 16; -21; 16; -21; 16; 0; 0; 16; -21; 16; -21; 16; 0; 0; 16; -21; 16; -21; 16; 0; 0; 16; -21; 16; -21; 16; 0" keyTimes="0; 0.023; 0.044; 0.066; 0.087; 0.108; 0.134; 0.216; 0.24; 0.261; 0.282; 0.303; 0.325; 0.351; 0.433; 0.456; 0.477; 0.499; 0.52; 0.541; 0.567; 0.649; 0.672; 0.694; 0.715; 0.736; 0.758; 0.784; 0.866; 0.889; 0.91; 0.931; 0.953; 0.974; 1" keySplines="0.581 0 0.833 1; 0.333 0 0.667 1; 0.167 0 0.833 1; 0.333 0 0.667 1; 0.167 0 0.833 1; 0.333 0 0.474 1; 0.167 0 0.833 1; 0.581 0 0.833 1; 0.333 0 0.667 1; 0.167 0 0.833 1; 0.333 0 0.667 1; 0.167 0 0.833 1; 0.333 0 0.474 1; 0.167 0 0.833 1; 0.581 0 0.833 1; 0.333 0 0.667 1; 0.167 0 0.833 1; 0.333 0 0.667 1; 0.167 0 0.833 1; 0.333 0 0.474 1; 0.167 0 0.833 1; 0.581 0 0.833 1; 0.333 0 0.667 1; 0.167 0 0.833 1; 0.333 0 0.667 1; 0.167 0 0.833 1; 0.333 0 0.474 1; 0.167 0 0.833 1; 0.581 0 0.833 1; 0.333 0 0.667 1; 0.167 0 0.833 1; 0.333 0 0.667 1; 0.167 0 0.833 1; 0.333 0 0.474 1" fill="freeze" /><g transform="scale(1,1) translate(0,-392.501)"><g id="Group 2"><path fill="#efcbbd" fill-opacity="1" d="M302.614,-40.484C272.385,-53.858,229.199,-35.931,198.642,7.409C178.573,35.863,172.662,76.38,146.304,80.604C136.236,82.224,130.766,76.098,127.921,67.276C124.922,52.39,125.579,29.384,131.136,-2.791L191.111,-272.352C195.883,-292.95,184.699,-312.89,157.776,-319.391C130.854,-325.892,110.605,-312.694,105.812,-292.096L52.272,-47.685C41.481,6.293,21.474,-3.514,26.311,-64.649L26.311,-64.671L41.655,-351.24C42.903,-373.391,25.873,-391.493,0.701,-392.456C-24.471,-393.419,-42.616,-378.317,-43.908,-356.187L-58.53,-62.679C-61.66,-3.426,-82.87,-25.753,-87.467,-68.677L-121.482,-306.127C-124.962,-328.519,-145.954,-343.995,-171.126,-339.967C-196.298,-335.917,-211.51,-315.101,-208.03,-292.709L-175.306,-75.703C-162.326,7.146,-179.291,30.086,-207.221,-59.877L-242.111,-191.758C-247.802,-212.925,-268.662,-226.057,-294.863,-218.703C-321.064,-211.348,-332.359,-190.27,-326.69,-169.103L-292.587,-45.146C-278.337,44.096,-278.337,79.312,-278.337,140.754C-278.337,202.2,-250.078,392.501,-33.926,392.501C182.228,392.501,226.681,172.93,228.741,159.033C228.741,159.033,231.433,126.636,254.044,96.32C286.196,53.22,308.766,27.241,322.447,11.699C329.383,3.841,336.128,-25.665,302.614,-40.484Z" /></g><g id="Group 1"><path fill="#f7bba3" fill-opacity="1" d="M139.235,80.388C132.668,77.717,127.111,70.843,126.451,55.891C85.039,61.56,29.025,73.161,-14.074,115.322C-70.022,170.018,-79.564,229.143,-79.105,268.696C-78.733,300.586,-61.331,315.692,-56.231,268.434C-49.818,208.741,-6.281,90.194,139.235,80.388Z" /></g></g></g></g></g></svg>